<?xml version="1.0" standalone="no"?>
<!DOCTYPE svg PUBLIC "-//W3C//DTD SVG 20010904//EN"
 "http://www.w3.org/TR/2001/REC-SVG-20010904/DTD/svg10.dtd">
<svg version="1.0" xmlns="http://www.w3.org/2000/svg"
 width="700.000000pt" height="700.000000pt" viewBox="0 0 700.000000 700.000000"
 preserveAspectRatio="xMidYMid meet">
<metadata>
Created by potrace 1.11, written by Peter Selinger 2001-2013
</metadata>
<g transform="translate(0.000000,700.000000) scale(0.100000,-0.100000)"
fill="#000000" stroke="none">
<path d="M3435 3660 c-198 -42 -414 -186 -527 -353 -42 -62 -61 -127 -37 -127
12 0 118 -12 319 -35 l55 -7 21 39 c12 21 50 69 85 107 65 71 76 91 54 100 -8
3 -11 -2 -9 -12 3 -10 -16 -38 -47 -69 -55 -57 -81 -69 -54 -25 19 31 -40 -28
-88 -88 -15 -19 -23 -25 -17 -13 14 30 13 43 -4 37 -8 -3 -17 0 -21 5 -3 6
-11 9 -16 6 -5 -4 -9 1 -9 10 0 9 -5 13 -10 10 -6 -4 -17 -1 -25 5 -12 10 -18
10 -30 0 -8 -7 -15 -8 -15 -2 0 5 -14 12 -32 16 -28 6 -37 1 -74 -35 -27 -27
-48 -40 -58 -36 -14 6 -13 11 6 44 26 46 49 77 92 123 17 19 39 45 48 58 15
22 80 66 185 124 88 49 203 85 307 98 89 11 128 10 266 -5 l45 -5 -45 17 c-51
18 -298 27 -365 13z"/>
<path d="M3760 3575 c-132 -27 -301 -109 -283 -138 3 -6 2 -7 -4 -4 -6 4 -19
-1 -29 -9 -10 -9 -13 -13 -6 -9 8 4 12 -2 12 -16 l0 -22 23 21 c12 11 39 28
59 37 42 17 73 20 46 4 -31 -18 -19 -30 13 -14 54 29 41 10 -34 -50 -41 -31
-106 -95 -146 -141 -40 -46 -77 -82 -82 -78 -13 8 12 51 61 107 23 26 40 50
38 53 -6 5 -82 -82 -131 -147 l-26 -37 34 -4 c33 -4 38 0 85 63 91 122 260
260 318 259 13 0 11 -5 -8 -20 -29 -23 -16 -26 20 -5 38 22 57 20 36 -4 -16
-17 -15 -18 21 -15 21 1 50 7 66 13 49 19 30 -11 -34 -54 -32 -22 -83 -65
-112 -95 l-52 -54 61 56 c64 59 134 107 224 154 36 18 49 29 38 32 -34 7 -5
31 70 58 l76 28 -34 8 c-19 5 -64 9 -100 11 -46 1 -64 6 -62 15 3 16 -71 15
-158 -3z"/>
<path d="M4135 3491 c-57 -16 -205 -86 -205 -96 0 -6 40 9 80 30 36 18 38 13
8 -15 -26 -24 -9 -26 33 -4 46 24 45 11 -3 -30 l-43 -37 37 16 c50 20 58 19
28 -5 -23 -18 -20 -18 29 3 40 16 55 19 58 10 3 -7 16 -13 29 -13 l25 0 -28
-25 -28 -26 51 25 c55 27 90 30 114 10 13 -11 26 -8 75 16 33 16 103 43 155
60 104 35 124 46 69 37 -22 -3 -47 0 -64 9 -15 7 -41 14 -58 14 -18 0 -72 0
-122 0 -89 -1 -141 -10 -202 -36 -35 -16 -73 -18 -73 -6 0 10 33 28 70 38 32
8 51 24 44 35 -7 11 -6 11 -79 -10z"/>
<path d="M5045 3406 c-229 -45 -425 -170 -619 -396 -45 -52 -30 -28 33 56 25
32 74 87 109 121 68 68 64 79 -18 42 -64 -29 -78 -45 -96 -111 -20 -70 -74
-136 -133 -163 -23 -10 -44 -15 -48 -12 -3 4 19 33 49 64 30 32 60 68 66 80
12 21 7 53 -8 53 -11 0 -102 -50 -122 -68 -13 -11 -24 -12 -46 -4 -17 6 -34 6
-38 2 -5 -5 -14 -6 -21 -2 -8 5 -6 18 7 47 26 57 33 85 22 85 -12 0 -142 -137
-142 -149 0 -5 -8 -17 -17 -27 -16 -16 -16 -18 7 -33 82 -54 240 -213 240
-242 0 -24 20 -5 35 34 60 153 232 347 410 464 70 47 220 116 237 111 5 -2
-26 -18 -70 -36 -195 -80 -420 -294 -520 -496 -39 -80 -54 -125 -46 -138 3 -5
21 25 39 67 56 127 167 284 262 368 326 291 784 286 1063 -9 186 -197 277
-413 287 -684 8 -224 -32 -397 -139 -600 -164 -311 -396 -488 -693 -530 -108
-15 -200 -9 -322 23 -114 30 -184 71 -284 167 l-79 75 11 47 10 47 42 -51 c52
-64 163 -150 243 -188 212 -102 482 -69 699 85 91 66 255 255 304 353 86 172
131 358 131 546 0 136 -12 216 -50 324 -91 261 -254 434 -491 519 -64 22 -90
26 -189 26 -99 0 -127 -3 -200 -27 -47 -16 -103 -37 -125 -49 -129 -65 -278
-199 -361 -324 -61 -91 -128 -242 -118 -267 8 -22 24 -20 24 2 0 37 111 239
175 320 152 189 384 312 590 312 228 0 475 -149 590 -355 74 -131 125 -332
125 -491 0 -209 -82 -458 -204 -621 -133 -177 -305 -282 -512 -313 -233 -35
-467 73 -642 295 -12 15 -24 26 -26 24 -1 -2 -10 -57 -20 -122 -44 -302 -151
-532 -331 -713 -158 -159 -261 -227 -434 -285 -121 -41 -124 -35 -6 9 55 21
135 58 179 82 97 55 264 203 332 293 165 219 257 532 263 897 3 186 -20 341
-78 510 -57 166 -112 266 -207 374 -75 87 -164 169 -172 161 -3 -2 -10 1 -16
9 -15 19 -135 65 -215 82 -236 50 -484 -49 -745 -295 -86 -82 -190 -214 -232
-296 -54 -103 -122 -290 -79 -215 18 31 19 24 3 -21 -6 -19 -18 -38 -25 -44
-7 -5 -14 -29 -16 -51 -1 -23 -6 -39 -11 -36 -5 3 -6 -7 -2 -22 4 -16 2 -26
-5 -26 -6 0 -8 -7 -5 -16 4 -9 1 -23 -5 -30 -7 -8 -9 -29 -6 -49 4 -24 2 -33
-5 -29 -8 5 -9 -4 -5 -29 3 -23 2 -37 -5 -37 -6 0 -8 -18 -5 -50 3 -28 1 -50
-4 -50 -5 0 -9 -5 -9 -11 0 -5 5 -7 11 -3 8 5 8 1 0 -14 -40 -75 27 -440 115
-619 67 -136 186 -282 314 -385 51 -41 173 -102 247 -124 l48 -14 -44 5 c-112
14 -290 121 -404 243 -28 31 -68 72 -87 92 -45 45 -70 80 -110 157 -33 65 -47
82 -30 38 36 -95 138 -233 246 -334 42 -39 70 -71 63 -71 -28 0 -254 45 -404
81 -88 21 -222 52 -297 68 -75 17 -181 43 -235 57 -215 57 -430 106 -649 149
-430 83 -613 192 -778 461 -38 62 -92 215 -119 339 l-5 20 -1 -20 c-2 -46 53
-227 98 -320 79 -161 194 -282 368 -386 37 -22 57 -38 43 -35 -21 5 -21 4 5
-8 17 -8 62 -20 100 -26 103 -16 189 -40 197 -53 5 -8 51 -14 122 -18 64 -4
121 -11 128 -17 7 -5 36 -13 65 -17 29 -4 69 -15 90 -26 20 -10 49 -19 64 -19
15 0 49 -7 75 -15 27 -8 74 -17 105 -20 37 -4 68 -15 90 -31 18 -13 40 -24 49
-24 9 0 31 -7 48 -16 20 -10 81 -18 171 -24 77 -5 164 -15 193 -24 29 -8 69
-19 88 -24 19 -6 58 -19 86 -30 29 -11 87 -23 130 -27 76 -6 122 -22 190 -64
17 -10 67 -23 115 -29 46 -6 117 -20 158 -31 114 -32 235 -30 406 7 77 17 198
40 269 52 139 23 210 45 187 59 -10 7 -11 13 -1 31 15 29 8 35 -28 22 -27 -9
-29 -8 -24 10 3 14 -1 21 -16 25 -19 5 -13 15 59 92 49 53 112 136 161 216 44
72 81 131 82 132 0 0 19 -5 41 -13 106 -37 652 -34 982 6 100 13 172 26 179
33 9 8 -35 29 -46 22 -6 -3 -10 -1 -10 6 0 8 -11 9 -32 5 l-33 -6 39 26 c23
16 57 28 83 31 40 3 56 -8 33 -22 -5 -3 -10 -11 -10 -17 0 -6 9 -3 20 7 18 17
20 17 14 2 -7 -19 -3 -20 49 -8 20 5 37 5 37 1 0 -17 73 -1 94 21 11 12 15 19
9 15 -7 -4 -13 -2 -13 3 0 16 16 13 34 -5 14 -14 15 -12 10 15 -5 25 -3 31 11
31 10 0 27 -7 37 -17 10 -9 18 -11 18 -5 0 6 -6 13 -12 15 -8 4 -4 8 10 12 12
4 22 12 21 19 -1 23 -35 69 -54 73 -46 8 -125 7 -128 -2 -2 -6 -11 -4 -21 5
-16 13 -20 12 -30 -1 -28 -40 -158 -131 -250 -178 -106 -52 -201 -82 -257 -80
-26 1 -28 3 -9 5 281 43 568 266 730 567 50 92 73 157 105 287 27 112 50 348
41 415 -4 22 -9 60 -12 85 -9 69 -60 212 -119 334 -44 91 -69 127 -135 199
-45 48 -86 87 -92 87 -6 0 -5 -7 3 -17 13 -16 12 -17 -3 -4 -10 7 -16 17 -13
21 7 12 -83 76 -156 110 -140 65 -344 93 -484 66z m108 -13 c-7 -2 -19 -2 -25
0 -7 3 -2 5 12 5 14 0 19 -2 13 -5z m110 0 c-7 -2 -21 -2 -30 0 -10 3 -4 5 12
5 17 0 24 -2 18 -5z m-196 -9 c-3 -3 -12 -4 -19 -1 -8 3 -5 6 6 6 11 1 17 -2
13 -5z m293 -4 l25 -8 -25 0 c-14 0 -36 4 -50 8 l-25 8 25 0 c14 0 36 -4 50
-8z m206 -76 c18 -14 18 -14 -6 -3 -31 14 -36 19 -24 19 6 0 19 -7 30 -16z
m-1243 -451 c-20 -38 -38 -70 -40 -72 -7 -9 -43 33 -43 51 0 28 46 71 69 63
10 -3 24 1 31 10 24 29 19 15 -17 -52z m-1572 -510 c-12 -20 -14 -14 -5 12 4
9 9 14 11 11 3 -2 0 -13 -6 -23z m-124 -715 c-3 -7 -5 -2 -5 12 0 14 2 19 5
13 2 -7 2 -19 0 -25z m10 -70 c-3 -7 -5 -2 -5 12 0 14 2 19 5 13 2 -7 2 -19 0
-25z m1944 -155 c13 -16 12 -17 -3 -4 -17 13 -22 21 -14 21 2 0 10 -8 17 -17z
m463 -153 l111 -9 -120 4 c-66 1 -131 8 -145 14 -23 10 -22 11 9 5 18 -3 83
-10 145 -14z m-1467 -626 c-3 -3 -12 -4 -19 -1 -8 3 -5 6 6 6 11 1 17 -2 13
-5z m-44 -11 c-7 -2 -21 -2 -30 0 -10 3 -4 5 12 5 17 0 24 -2 18 -5z"/>
<path d="M1295 3370 c-67 -10 -169 -40 -161 -47 3 -4 -22 -22 -55 -40 -180
-100 -348 -272 -438 -449 -38 -76 -41 -97 -3 -29 74 133 202 285 311 369 76
59 211 130 296 156 96 30 243 36 365 16 52 -8 96 -14 97 -12 2 2 -34 13 -79
25 -86 22 -225 27 -333 11z"/>
<path d="M3479 3363 c-13 -16 -12 -17 4 -4 16 13 21 21 13 21 -2 0 -10 -8 -17
-17z"/>
<path d="M3783 3302 c-44 -35 -111 -104 -155 -160 -10 -12 -24 -19 -32 -16
-13 5 -11 12 11 42 25 36 25 36 -15 -5 -23 -24 -51 -43 -62 -43 -14 0 -19 4
-14 13 5 8 2 8 -9 -2 -14 -11 -17 -11 -17 0 0 10 -3 10 -8 3 -4 -7 -46 -25
-95 -42 -130 -46 -269 -134 -431 -276 l-70 -61 28 47 c15 26 25 52 21 57 -3 6
1 27 10 47 23 56 20 71 -17 77 -18 2 -41 0 -50 -5 -14 -6 -18 -5 -18 7 0 11
-11 15 -43 15 -24 0 -48 5 -53 10 -15 15 -90 -36 -182 -125 -66 -63 -126 -138
-210 -261 -7 -11 -5 -3 4 16 49 102 171 250 284 344 25 21 35 33 23 27 -38
-19 -190 -170 -241 -239 -27 -37 -71 -104 -97 -150 -26 -45 -55 -87 -65 -92
-10 -5 -25 -28 -34 -50 -23 -58 -20 -62 10 -12 31 52 52 44 29 -11 -23 -55
-17 -58 11 -4 13 26 27 47 29 47 3 0 22 -9 42 -20 21 -11 51 -20 68 -20 16 0
45 -9 63 -20 18 -11 45 -20 61 -20 27 0 30 4 41 53 16 66 31 96 23 42 -13 -76
-10 -90 17 -91 14 0 30 4 37 9 7 5 -1 -31 -17 -79 -33 -96 -34 -126 -1 -42 66
173 93 225 145 285 11 13 16 26 13 29 -4 4 9 20 28 37 19 16 35 35 35 42 0 20
96 119 108 111 5 -3 15 1 22 9 7 8 9 15 4 15 -9 0 2 9 111 90 95 71 184 119
280 151 62 21 88 24 223 24 97 0 152 4 152 10 0 6 14 28 31 50 27 35 25 34
-13 -7 -43 -46 -43 -46 -91 -39 -26 4 -50 10 -52 13 -13 13 72 108 184 204 2
2 2 4 -1 4 -4 0 -28 -17 -55 -38z m-1120 -677 c-3 -9 -8 -14 -10 -11 -3 3 -2
9 2 15 9 16 15 13 8 -4z m-313 -55 c-6 -12 -14 -20 -17 -17 -2 3 1 14 8 26 17
26 24 19 9 -9z m384 -45 c-9 -14 -19 -23 -22 -20 -5 4 26 45 35 45 2 0 -4 -11
-13 -25z"/>
<path d="M1038 3289 c-21 -11 -38 -22 -38 -24 0 -5 79 32 89 41 12 11 -18 1
-51 -17z"/>
<path d="M4213 3289 c-35 -22 -46 -37 -15 -20 22 13 58 40 52 41 -3 0 -20 -10
-37 -21z"/>
<path d="M914 3211 c-38 -27 -85 -66 -104 -87 l-35 -39 40 36 c22 20 69 58
105 84 71 52 76 55 68 55 -3 0 -36 -22 -74 -49z"/>
<path d="M4059 3233 l-24 -28 28 24 c25 23 32 31 24 31 -2 0 -14 -12 -28 -27z"/>
<path d="M1386 3195 c-27 -14 -62 -36 -79 -49 -31 -22 -36 -23 -127 -14 -115
12 -154 2 -204 -48 -35 -35 -63 -42 -36 -10 14 18 31 86 21 86 -9 0 -150 -144
-170 -173 -9 -14 -34 -51 -55 -83 -21 -33 -46 -75 -54 -94 -14 -34 -14 -34 4
-19 37 31 49 32 20 1 l-29 -31 31 9 c18 6 46 14 62 19 20 6 42 6 61 -1 34 -12
124 -5 143 11 7 6 17 6 26 1 15 -9 50 19 50 40 0 5 6 10 14 10 11 0 10 -8 -5
-40 -25 -51 -24 -54 7 -34 14 10 34 35 46 58 66 131 210 303 295 353 70 41 53
47 -21 8z"/>
<path d="M1424 3172 c-55 -36 -106 -82 -90 -82 3 0 -13 -24 -37 -52 -23 -29
-53 -70 -65 -91 -13 -20 -28 -35 -32 -32 -8 5 -37 -44 -60 -102 -9 -20 -7 -21
14 -12 13 6 33 33 45 60 59 130 164 255 264 313 26 15 47 30 47 32 0 13 -34
-1 -86 -34z"/>
<path d="M1603 3181 c-65 -36 -133 -89 -133 -104 0 -6 12 0 28 14 26 23 26 23
-2 -9 -29 -31 -43 -42 -31 -22 3 6 3 10 -2 9 -16 -1 -95 -111 -119 -167 -13
-31 -18 -49 -11 -39 19 23 30 22 22 -4 -10 -32 10 -15 25 21 7 16 18 30 24 30
15 0 32 28 40 67 9 40 123 164 182 199 24 14 44 28 44 30 0 9 -17 2 -67 -25z
m-53 -56 c-7 -8 -17 -15 -22 -15 -6 0 -5 7 2 15 7 8 17 15 22 15 6 0 5 -7 -2
-15z"/>
<path d="M4089 3193 c-13 -16 -12 -17 4 -4 16 13 21 21 13 21 -2 0 -10 -8 -17
-17z"/>
<path d="M1500 3169 c-66 -36 -146 -112 -205 -194 -42 -59 -115 -194 -115
-211 1 -5 10 8 21 29 11 20 23 37 28 37 19 0 17 -13 -5 -35 -23 -24 -34 -85
-15 -85 9 0 41 61 41 79 0 6 9 20 20 31 12 12 36 53 54 93 39 86 118 182 199
243 68 51 57 57 -23 13z m-84 -96 c-21 -21 -56 -64 -78 -95 -36 -52 -58 -71
-58 -51 0 17 66 106 111 148 59 55 80 53 25 -2z"/>
<path d="M1681 3180 c-24 -11 -41 -23 -38 -26 3 -3 29 6 59 20 62 30 44 35
-21 6z"/>
<path d="M1794 3186 c-10 -8 -17 -17 -14 -19 3 -3 16 3 30 13 29 22 14 27 -16
6z"/>
<path d="M3753 3178 c-22 -26 -37 -48 -30 -48 3 0 17 16 31 35 30 39 30 46 -1
13z"/>
<path d="M5185 3190 c3 -5 11 -10 16 -10 6 0 7 5 4 10 -3 6 -11 10 -16 10 -6
0 -7 -4 -4 -10z"/>
<path d="M1866 3175 c-56 -20 -170 -100 -215 -151 -49 -56 -96 -146 -88 -167
12 -31 35 -17 60 36 13 28 45 76 71 105 26 28 43 52 37 52 -5 0 -24 -18 -42
-39 -35 -44 -59 -58 -59 -35 0 8 20 35 45 59 65 66 155 117 109 63 l-19 -23
25 22 c14 12 52 38 84 57 62 37 59 45 -8 21z"/>
<path d="M1945 3169 c-27 -10 -60 -27 -73 -37 l-24 -18 29 2 c15 1 52 16 81
34 74 47 70 52 -13 19z"/>
<path d="M2310 3157 c-75 -29 -200 -98 -200 -112 0 -2 21 9 46 25 26 16 51 27
55 24 5 -2 41 12 81 32 40 20 89 43 108 50 22 8 28 13 15 13 -11 0 -58 -14
-105 -32z"/>
<path d="M5066 3175 c-6 -17 -33 -20 -38 -4 -4 11 -121 -34 -150 -59 -14 -12
-21 -12 -32 -3 -12 10 -13 9 -9 -8 3 -14 1 -21 -9 -21 -7 0 -21 -9 -31 -20 -9
-11 -23 -20 -31 -20 -19 0 -117 -101 -109 -113 4 -6 0 -8 -10 -4 -16 6 -21 -3
-18 -30 1 -7 -3 -13 -9 -13 -6 0 -8 -5 -4 -12 5 -8 2 -9 -9 -5 -9 3 -19 1 -23
-5 -5 -7 -2 -8 6 -3 17 11 3 -33 -21 -64 -11 -13 -19 -34 -19 -47 0 -12 -7
-29 -14 -37 -8 -8 -17 -25 -19 -38 -2 -13 -7 -31 -10 -39 -18 -44 -47 -142
-47 -157 1 -10 11 14 24 52 32 98 77 193 124 262 79 116 231 235 357 278 67
23 209 31 287 16 187 -36 347 -176 428 -374 19 -45 26 -54 31 -40 6 14 8 14 8
2 1 -8 7 -24 15 -34 13 -18 14 -17 9 10 -7 37 -22 57 -36 48 -6 -3 -7 -1 -3 6
4 6 11 9 16 6 5 -3 3 10 -5 30 -9 19 -15 37 -14 40 0 3 -3 19 -6 36 -5 21 -11
29 -21 25 -9 -3 -12 -1 -9 5 4 5 1 17 -7 26 -11 14 -11 16 2 8 8 -5 4 5 -10
22 -23 28 -50 37 -34 11 4 -7 2 -8 -4 -4 -6 4 -9 12 -6 19 2 7 -6 24 -18 37
-13 14 -22 28 -20 33 1 5 -1 6 -6 3 -5 -3 -29 16 -53 42 -24 26 -61 56 -82 66
-44 20 -44 32 -1 16 22 -9 26 -9 17 0 -6 7 -25 13 -41 14 -16 1 -36 7 -44 14
-8 6 -18 9 -22 4 -4 -4 -12 1 -17 11 -6 9 -17 17 -26 17 -14 0 -14 -2 3 -16
18 -15 18 -15 -3 -4 -12 5 -25 15 -28 20 -9 15 -45 12 -45 -4 0 -8 -5 -18 -12
-22 -7 -4 -8 -3 -4 4 4 8 0 12 -12 12 -11 0 -34 3 -52 7 -24 4 -31 3 -26 -5 5
-8 2 -10 -8 -6 -9 3 -16 10 -16 15 0 15 -17 10 -24 -6z m309 -63 c-3 -3 -11 0
-18 7 -9 10 -8 11 6 5 10 -3 15 -9 12 -12z m55 -22 c0 -5 -5 -10 -11 -10 -5 0
-7 5 -4 10 3 6 8 10 11 10 2 0 4 -4 4 -10z m210 -220 c0 -5 -2 -10 -4 -10 -3
0 -8 5 -11 10 -3 6 -1 10 4 10 6 0 11 -4 11 -10z"/>
<path d="M2435 3166 c-60 -19 -166 -73 -200 -103 -29 -25 -30 -26 -2 -9 15 9
32 14 37 11 5 -3 28 6 50 21 22 15 77 42 123 60 80 33 75 46 -8 20z"/>
<path d="M3974 3148 l-29 -33 33 29 c17 17 32 31 32 33 0 8 -8 1 -36 -29z"/>
<path d="M2505 3151 c-60 -22 -142 -63 -170 -86 -20 -16 -20 -16 2 -6 31 16
37 14 22 -6 -13 -17 -12 -17 6 -2 32 25 95 59 165 90 72 31 54 38 -25 10z"/>
<path d="M2630 3161 c-71 -22 -276 -140 -294 -170 -4 -6 13 2 37 19 25 16 48
30 52 30 4 0 -27 -32 -68 -70 -106 -100 -164 -183 -246 -354 -75 -157 -94
-208 -35 -93 19 37 39 67 44 67 13 0 13 0 -9 -46 -10 -21 -22 -50 -25 -64 l-7
-25 20 25 c11 14 21 30 21 36 0 14 41 67 46 61 2 -2 -7 -30 -21 -62 -14 -31
-24 -59 -23 -61 2 -2 23 34 47 79 68 129 145 240 234 335 52 55 64 71 32 42
-28 -24 -58 -55 -68 -67 -26 -32 -41 -29 -20 5 62 100 219 218 376 281 32 13
55 26 53 29 -3 2 -34 -3 -68 -12 -116 -32 -248 -119 -368 -240 -79 -80 -107
-98 -68 -44 67 95 236 228 352 277 60 26 64 39 6 22z m-130 -142 c-109 -88
-202 -204 -302 -373 -28 -48 -48 -59 -48 -28 0 32 101 183 174 260 73 78 173
162 191 162 6 -1 -1 -10 -15 -21z"/>
<path d="M3400 3140 c-6 -11 -8 -20 -6 -20 3 0 10 9 16 20 6 11 8 20 6 20 -3
0 -10 -9 -16 -20z"/>
<path d="M2749 3121 c-67 -25 -229 -122 -229 -137 0 -3 13 4 29 15 36 26 48
27 30 4 -8 -12 -4 -10 11 3 42 37 128 85 203 115 94 37 55 37 -44 0z"/>
<path d="M2853 3120 c-72 -26 -181 -85 -223 -121 l-35 -30 49 30 c27 17 53 28
58 25 4 -3 20 3 36 14 33 24 124 70 172 88 21 7 27 13 15 13 -11 0 -43 -9 -72
-19z"/>
<path d="M1669 3081 c-30 -27 -66 -65 -80 -85 -13 -19 -32 -37 -43 -38 -29 -5
-43 -34 -28 -59 7 -11 10 -30 7 -42 -3 -12 13 14 37 58 24 45 71 109 107 147
35 38 62 68 59 68 -2 0 -29 -22 -59 -49z"/>
<path d="M1554 3088 l-19 -23 23 19 c21 18 27 26 19 26 -2 0 -12 -10 -23 -22z"/>
<path d="M1905 3101 c-22 -4 -94 -50 -143 -93 -18 -15 -39 -28 -47 -28 -7 0
-39 -37 -70 -81 -66 -96 -79 -119 -71 -126 3 -3 10 6 15 20 5 14 15 28 22 33
9 5 10 2 6 -9 -10 -26 28 -21 42 6 11 22 11 21 6 -4 -4 -21 1 -28 21 -37 33
-16 44 -15 66 5 22 20 26 -1 5 -26 -9 -10 -11 -25 -6 -41 4 -14 7 -20 8 -13 1
6 5 23 11 38 8 22 13 24 29 15 37 -19 34 -45 -19 -165 -27 -64 -50 -119 -50
-123 0 -4 27 48 60 116 32 67 61 122 64 122 3 0 -2 -20 -11 -46 -19 -57 -10
-68 18 -20 23 39 39 44 19 6 -6 -12 -10 -24 -7 -26 4 -4 23 32 70 137 14 31
55 95 91 142 35 48 63 87 61 87 -9 0 -117 -140 -150 -195 -22 -38 -42 -59 -55
-60 -11 -1 -20 2 -20 5 0 20 110 174 168 235 l67 70 -62 -60 c-35 -33 -63 -55
-63 -49 0 10 106 118 148 151 23 18 21 18 -90 18 -63 0 -123 -2 -133 -4z
m-105 -84 c0 -2 -14 -16 -32 -33 l-32 -29 25 32 c20 27 39 41 39 30z m-10
-193 c-56 -17 -60 -17 -36 1 11 8 34 15 50 14 28 0 27 -2 -14 -15z"/>
<path d="M3805 3090 c27 -12 43 -12 25 0 -8 5 -22 9 -30 9 -10 0 -8 -3 5 -9z"/>
<path d="M3850 3080 c0 -5 5 -10 11 -10 5 0 7 5 4 10 -3 6 -8 10 -11 10 -2 0
-4 -4 -4 -10z"/>
<path d="M4759 3073 c-13 -16 -12 -17 4 -4 16 13 21 21 13 21 -2 0 -10 -8 -17
-17z"/>
<path d="M3217 3056 c-74 -31 -187 -98 -212 -127 -21 -24 -10 -20 38 13 22 16
27 17 27 4 0 -10 31 5 98 46 144 90 159 109 49 64z"/>
<path d="M5507 3049 c7 -7 15 -10 18 -7 3 3 -2 9 -12 12 -14 6 -15 5 -6 -5z"/>
<path d="M2314 3018 l-19 -23 23 19 c21 18 27 26 19 26 -2 0 -12 -10 -23 -22z"/>
<path d="M2244 2998 l-19 -23 23 19 c21 18 27 26 19 26 -2 0 -12 -10 -23 -22z"/>
<path d="M4664 2998 l-19 -23 23 19 c21 18 27 26 19 26 -2 0 -12 -10 -23 -22z"/>
<path d="M2229 2943 c-77 -85 -153 -207 -204 -328 -25 -60 -45 -111 -45 -114
0 -3 22 35 48 84 26 50 60 110 76 135 16 25 22 39 13 31 -10 -7 -17 -10 -17
-7 0 16 77 127 132 189 73 82 71 89 -3 10z m-136 -228 c-3 -9 -8 -14 -10 -11
-3 3 -2 9 2 15 9 16 15 13 8 -4z"/>
<path d="M5033 2965 c-117 -25 -242 -112 -331 -230 -90 -120 -156 -312 -150
-442 l3 -68 17 54 c9 30 15 58 13 62 -3 4 4 9 14 12 12 3 21 18 26 43 38 204
153 364 324 450 64 32 101 39 201 39 65 0 85 -5 143 -33 97 -48 164 -117 222
-232 26 -52 45 -85 42 -72 -3 12 -1 22 4 22 5 0 9 11 9 24 0 14 5 28 10 31 31
19 -32 136 -116 215 -77 71 -162 116 -250 130 -75 12 -104 12 -181 -5z"/>
<path d="M5620 2976 c0 -2 8 -10 18 -17 15 -13 16 -12 3 4 -13 16 -21 21 -21
13z"/>
<path d="M1467 2944 c-15 -14 -27 -36 -27 -49 0 -14 2 -25 4 -25 6 0 57 92 53
96 -2 2 -15 -8 -30 -22z"/>
<path d="M2119 2913 c-13 -16 -12 -17 4 -4 9 7 17 15 17 17 0 8 -8 3 -21 -13z"/>
<path d="M2408 2833 c-74 -94 -156 -218 -164 -248 -3 -13 -16 -27 -29 -33 -14
-6 -31 -28 -40 -48 -22 -54 -18 -65 8 -20 29 51 52 61 33 14 -28 -68 -26 -81
4 -23 40 80 132 226 188 300 25 33 35 51 23 41 -31 -28 -26 -10 15 45 56 77
31 57 -38 -28z"/>
<path d="M2954 2888 l-19 -23 23 19 c12 11 22 21 22 23 0 8 -8 2 -26 -19z"/>
<path d="M2189 2853 c-13 -16 -12 -17 4 -4 16 13 21 21 13 21 -2 0 -10 -8 -17
-17z"/>
<path d="M1288 2753 c-9 -32 -30 -105 -47 -162 -32 -110 -36 -151 -6 -59 10
29 21 55 26 58 14 10 62 143 63 177 2 57 -18 49 -36 -14z"/>
<path d="M1498 2777 c-3 -19 -2 -25 4 -19 6 6 8 18 6 28 -3 14 -5 12 -10 -9z"/>
<path d="M1960 2770 c-6 -11 -8 -20 -6 -20 3 0 10 9 16 20 6 11 8 20 6 20 -3
0 -10 -9 -16 -20z"/>
<path d="M1350 2659 c-23 -57 -56 -135 -72 -174 -20 -47 -28 -79 -24 -99 3
-16 1 -35 -5 -42 -6 -7 -9 -23 -7 -36 3 -17 10 -4 27 44 13 39 20 76 16 88 -6
20 30 90 46 90 17 0 76 195 67 222 -2 6 -24 -35 -48 -93z"/>
<path d="M1556 2745 c-9 -26 -7 -32 5 -12 6 10 9 21 6 23 -2 3 -7 -2 -11 -11z"/>
<path d="M2000 2740 c-6 -11 -17 -20 -25 -20 -18 0 -48 -43 -70 -102 -30 -81
-10 -76 34 7 23 44 39 69 35 55 -4 -14 -13 -38 -21 -53 -8 -16 -13 -31 -10
-33 2 -2 12 14 22 36 23 51 48 75 35 33 -5 -15 -16 -50 -24 -77 -23 -73 -13
-66 23 15 28 63 31 75 21 105 -6 18 -9 38 -5 44 3 5 4 10 1 10 -3 0 -10 -9
-16 -20z"/>
<path d="M2057 2592 c-22 -45 -37 -86 -35 -92 6 -18 80 129 76 152 -2 16 -14
0 -41 -60z"/>
<path d="M1576 2594 c-10 -31 -15 -58 -12 -61 2 -3 12 20 21 52 22 74 14 82
-9 9z"/>
<path d="M1116 2623 c-6 -14 -5 -15 5 -6 7 7 10 15 7 18 -3 3 -9 -2 -12 -12z"/>
<path d="M1497 2627 c-3 -8 -8 -40 -11 -73 -3 -32 -3 -50 0 -39 24 89 31 125
24 125 -4 0 -10 -6 -13 -13z"/>
<path d="M1847 2575 c-24 -50 -20 -58 4 -12 11 22 19 41 17 43 -3 2 -12 -12
-21 -31z"/>
<path d="M1926 2565 c-9 -26 -7 -32 5 -12 6 10 9 21 6 23 -2 3 -7 -2 -11 -11z"/>
<path d="M1451 2514 c0 -11 3 -14 6 -6 3 7 2 16 -1 19 -3 4 -6 -2 -5 -13z"/>
<path d="M1542 2440 c-17 -41 -35 -97 -38 -123 -4 -30 -17 -61 -35 -83 -25
-31 -28 -33 -25 -12 1 13 7 34 13 48 24 59 72 243 60 230 -3 -3 -33 -84 -67
-180 -35 -96 -73 -199 -87 -229 -13 -30 -22 -56 -20 -57 6 -7 105 131 140 196
40 74 100 243 95 268 -2 9 -18 -17 -36 -58z"/>
<path d="M1418 2385 c-15 -60 -45 -163 -68 -229 -48 -138 -48 -167 -1 -39 100
271 102 276 99 327 -3 50 -3 49 -30 -59z"/>
<path d="M4451 2443 c-1 -6 -4 -20 -7 -30 -5 -17 -5 -17 6 0 6 10 9 23 6 30
-3 9 -5 9 -5 0z"/>
<path d="M5636 2219 c-18 -82 -55 -167 -111 -254 -225 -352 -662 -376 -876
-47 -26 40 -51 82 -54 93 -7 20 -7 20 -20 2 -26 -36 12 -191 40 -165 5 4 5 1
1 -5 -7 -13 -2 -21 44 -72 45 -51 157 -128 216 -151 164 -61 380 -26 525 86
145 112 285 323 281 424 -3 68 -9 115 -19 140 -9 22 -12 16 -27 -51z"/>
<path d="M1281 2239 c-6 -18 -11 -37 -10 -43 0 -6 7 7 15 28 8 22 12 41 10 43
-2 2 -9 -10 -15 -28z"/>
<path d="M4550 2185 c0 -19 2 -35 4 -35 2 0 6 16 8 35 2 19 0 35 -4 35 -4 0
-8 -16 -8 -35z"/>
<path d="M4562 2115 c0 -16 2 -22 5 -12 2 9 2 23 0 30 -3 6 -5 -1 -5 -18z"/>
<path d="M872 2083 c-1 -17 -5 -40 -8 -50 -5 -17 -5 -17 6 0 6 9 9 32 7 50
l-4 32 -1 -32z"/>
<path d="M4571 2054 c0 -11 3 -14 6 -6 3 7 2 16 -1 19 -3 4 -6 -2 -5 -13z"/>
<path d="M1013 1980 c0 -25 2 -35 4 -22 2 12 2 32 0 45 -2 12 -4 2 -4 -23z"/>
<path d="M941 1994 c0 -11 3 -14 6 -6 3 7 2 16 -1 19 -3 4 -6 -2 -5 -13z"/>
<path d="M482 1945 c0 -16 2 -22 5 -12 2 9 2 23 0 30 -3 6 -5 -1 -5 -18z"/>
<path d="M1070 1931 c0 -25 6 -27 13 -6 4 8 2 17 -3 20 -6 4 -10 -3 -10 -14z"/>
<path d="M1666 1907 c-5 -21 -6 -41 -2 -44 12 -12 17 5 14 43 l-4 39 -8 -38z"/>
<path d="M1749 1933 c-3 -21 -6 -29 -13 -46 -11 -22 2 -37 14 -17 10 16 14 70
5 70 -3 0 -6 -3 -6 -7z"/>
<path d="M1978 1915 c-6 -30 -3 -43 8 -33 3 4 4 19 2 35 l-3 28 -7 -30z"/>
<path d="M2145 1929 c-4 -6 -5 -12 -2 -15 2 -3 7 2 10 11 7 17 1 20 -8 4z"/>
<path d="M1898 1905 c-8 -18 -8 -29 -1 -36 7 -7 12 0 15 25 5 43 2 45 -14 11z"/>
<path d="M1823 1905 c4 -8 2 -17 -4 -20 -12 -8 -2 -25 15 -25 8 0 11 10 8 30
-2 17 -9 30 -14 30 -6 0 -8 -7 -5 -15z"/>
<path d="M5756 1795 c-13 -25 -21 -43 -15 -40 10 7 52 85 45 85 -2 0 -16 -20
-30 -45z"/>
<path d="M1575 1783 c6 -23 -3 -30 -20 -14 -6 5 -35 5 -67 1 -32 -5 -68 -6
-80 -4 -21 4 -21 4 -3 -4 11 -5 45 -10 75 -11 30 0 67 -3 83 -6 21 -4 27 -2
27 12 0 10 -5 25 -11 33 -8 12 -9 10 -4 -7z"/>
<path d="M1860 1780 c0 -5 5 -10 11 -10 5 0 7 5 4 10 -3 6 -8 10 -11 10 -2 0
-4 -4 -4 -10z"/>
<path d="M1700 1760 c0 -5 5 -10 11 -10 5 0 7 5 4 10 -3 6 -8 10 -11 10 -2 0
-4 -4 -4 -10z"/>
<path d="M2190 1758 c-24 -11 -23 -12 20 -18 25 -4 63 -14 85 -22 59 -22 112
-30 120 -18 6 10 2 11 -45 15 -14 1 -43 14 -64 29 -41 28 -75 32 -116 14z"/>
<path d="M5670 1669 c0 -5 5 -7 10 -4 6 3 10 8 10 11 0 2 -4 4 -10 4 -5 0 -10
-5 -10 -11z"/>
<path d="M540 1562 c0 -5 23 -42 52 -82 55 -80 162 -191 218 -229 23 -15 17
-8 -15 20 -81 70 -152 149 -205 227 -28 41 -50 70 -50 64z"/>
<path d="M5950 1390 c-9 -16 -8 -20 5 -20 8 0 15 9 15 20 0 11 -2 20 -5 20 -2
0 -9 -9 -15 -20z"/>
<path d="M5985 1399 c-11 -16 -1 -19 13 -3 7 8 8 14 3 14 -5 0 -13 -5 -16 -11z"/>
<path d="M940 1170 c8 -5 20 -10 25 -10 6 0 3 5 -5 10 -8 5 -19 10 -25 10 -5
0 -3 -5 5 -10z"/>
<path d="M4140 756 c0 -2 7 -9 15 -16 13 -11 14 -10 9 4 -5 14 -24 23 -24 12z"/>
</g>
</svg>
