<?xml version="1.0" standalone="no"?>
<!DOCTYPE svg PUBLIC "-//W3C//DTD SVG 20010904//EN"
 "http://www.w3.org/TR/2001/REC-SVG-20010904/DTD/svg10.dtd">
<svg version="1.0" xmlns="http://www.w3.org/2000/svg"
 width="1000.000000pt" height="1000.000000pt" viewBox="0 0 1000.000000 1000.000000"
 preserveAspectRatio="xMidYMid meet">
<metadata>
Created by potrace 1.11, written by Peter Selinger 2001-2013
</metadata>
<g transform="translate(0.000000,1000.000000) scale(0.100000,-0.100000)"
fill="#000000" stroke="none">
<path d="M0 5000 l0 -5000 5000 0 5000 0 0 2640 0 2640 -117 0 c-315 0 -757
56 -1078 136 -487 122 -959 329 -1365 597 -959 635 -1583 1610 -1705 2667 -44
385 -22 814 61 1165 14 61 28 120 31 133 l5 22 -2916 0 -2916 0 0 -5000z"/>
<path d="M7194 9958 c3 -24 8 -77 11 -118 17 -212 81 -500 160 -711 247 -667
728 -1209 1345 -1515 358 -177 682 -257 1098 -271 l192 -6 0 1331 0 1332
-1406 0 -1405 0 5 -42z"/>
</g>
</svg>
